<svg id="Layer_1" enable-background="new 0 0 512 512" height="512" viewBox="0 0 512 512" width="512" xmlns="http://www.w3.org/2000/svg"><g><path d="m328.252 116.44c-17.493-23.337-27.127-52.25-27.127-81.416v-5.082c7.757-.576 13.875-7.038 13.875-14.942 0-8.284-6.716-15-15-15h-88c-8.284 0-15 6.716-15 15 0 7.904 6.118 14.366 13.875 14.943v5.082c0 29.165-9.634 58.079-27.127 81.416-21.359 28.495-33.123 63.799-33.123 99.41v239.962c0 30.982 25.206 56.188 56.188 56.188h98.375c30.981 0 56.188-25.206 56.188-56.188v-239.963c-.001-35.611-11.765-70.915-33.124-99.41zm-87.377-81.415v-5.025h30.25v5.025c0 35.611 11.764 70.915 33.123 99.41 3.854 5.141 7.302 10.565 10.373 16.19h-117.242c3.072-5.625 6.52-11.05 10.373-16.19 21.359-28.495 33.123-63.799 33.123-99.41zm90.5 420.788c0 14.44-11.748 26.188-26.188 26.188h-98.375c-14.439 0-26.188-11.748-26.188-26.188v-239.963c0-11.907 1.632-23.765 4.722-35.225h141.305c3.091 11.461 4.722 23.318 4.722 35.225v239.963z"/></g></svg>