<svg width="315" height="481" viewBox="0 0 315 481" fill="none" xmlns="http://www.w3.org/2000/svg">
<path d="M301.657 104.922H292.825H237.104H236.659H170.028C165.885 104.922 162.526 108.078 162.526 111.97C162.526 115.862 165.885 119.017 170.028 119.017H226.656H299.157H15.005H59.848H87.854H170.028C174.171 119.017 170.028 111.97 170.028 111.97C170.028 108.078 174.171 104.922 170.028 104.922H95.355V21.1433C95.356 9.48472 85.26 0 72.85 0H12.503C5.608 0 0 5.26845 0 11.746V29.326C0 35.8035 5.608 41.072 12.503 41.072H52.346V104.922H12.503C5.608 104.922 0 110.19 0 116.668V187.858V398.064V469.255C0 475.733 5.608 481.001 12.503 481.001H50.695C54.838 481.001 58.197 477.845 58.197 473.953C58.197 470.061 54.838 466.905 50.695 466.905H15.003L299.157 466.905H229.156H102.709C98.566 466.905 95.207 470.06 95.207 473.952C95.207 477.844 98.566 481 102.709 481H236.659H237.104H301.657C308.552 481 314.16 475.732 314.16 469.254V398.063V187.859V116.669C314.16 110.191 308.552 104.922 301.657 104.922ZM15.004 26.9764V14.0956H72.85C76.987 14.0956 80.352 17.2568 80.352 21.1433V104.922H67.35V38.7224C67.35 32.2449 61.742 26.9764 54.847 26.9764H15.004ZM299.157 466.905L15.003 466.905L15.005 194.906V119.017H299.157V180.811V466.905ZM285.908 119.017L299.157 119.017L257.41 119.017H285.908ZM299.157 119.017V126.999V180.811V119.017Z" fill="black"/>
<path d="M283.908 392.209C296.582 383.776 295.764 369.742 295.723 369.148C295.61 367.51 294.624 366.061 293.142 365.354C292.604 365.098 279.85 359.188 267.354 367.885C261.744 371.617 258.779 376.444 257.218 380.718V372.067C257.218 369.555 255.181 367.517 252.668 367.517C250.155 367.517 248.118 369.555 248.118 372.067V383.582C238.273 384.293 229.154 388.544 222.243 395.7C214.811 403.396 210.82 413.525 211.006 424.223C211.192 434.92 215.534 444.904 223.23 452.336C230.753 459.603 240.603 463.58 251.035 463.58C251.274 463.58 251.513 463.578 251.752 463.574C262.448 463.387 272.433 459.046 279.866 451.35C287.298 443.654 291.289 433.525 291.102 422.827C290.911 411.874 286.315 402.018 279.039 394.907C280.648 394.225 282.28 393.342 283.908 392.209ZM272.426 375.44C272.458 375.419 272.489 375.398 272.52 375.376C277.84 371.659 283.254 371.989 286.435 372.694C285.925 375.911 284.245 381.07 278.835 384.655C278.803 384.675 278.772 384.697 278.741 384.718C275.412 387.045 272.044 387.787 269.213 387.843C267.88 387.163 266.503 386.558 265.091 386.028C265.837 382.853 267.72 378.558 272.426 375.44ZM282.004 422.985C282.302 440.051 268.66 454.177 251.594 454.474C243.337 454.623 235.499 451.535 229.552 445.791C223.604 440.047 220.25 432.33 220.106 424.063C219.962 415.797 223.045 407.968 228.789 402.021C234.533 396.073 242.249 392.719 250.516 392.574C250.699 392.571 250.881 392.57 251.063 392.57C267.881 392.57 281.71 406.102 282.004 422.985Z" fill="black"/>
</svg>
