<svg height="512" viewBox="0 0 48 57" width="512" xmlns="http://www.w3.org/2000/svg"><g id="025---Apple" transform="translate(-1)"><path id="Shape" d="m27 10.93c.0012649-1.23103276.5692963-2.3929151 1.54-3.15l4.55-3.41c.4101337-.34093313.4805337-.94373344.16-1.37l-1.25-1.6c-.1622811-.2120143-.4026067-.35032956-.6674503-.38413937-.2648435-.03380982-.5322099.03969368-.7425497.20413937l-4.9 3.71c-1.7061936 1.32163896-2.7004149 3.36182541-2.69 5.52l-.000081 6.55h4.000081z"/><path id="Shape" d="m9.36 12c2.81 1.56 7.15 2.83 10 1.33l-7.93-5.51c-.4205337-.32599407-.5121453-.92420814-.2084432-1.36111293.3037022-.43690479.8963478-.55947667 1.3484432-.27888707l8.16 5.71c.1943288-.4509306.2865303-.9392568.27-1.43-.08-2.54-2.64-5.83-6.45-8s-10.42-1.46-13.13-1.06c1.58 3.6 4.51 8.7 7.94 10.6z"/><path id="Shape" d="m45.48 15.89c-3.9421802-5.0270805-11.0191703-6.31536751-16.48-3v4.11h1c.5522847 0 1 .4477153 1 1s-.4477153 1-1 1h-10c-.5522847 0-1-.4477153-1-1s.4477153-1 1-1h1v-2.35c-3.5 2.62-9.91 1-13.49-1.45-5.19 3.42-6.61 9-6.51 15.26.07454634 5.8608755 1.47631815 11.6286536 4.1 16.87 2.72 5.36 8.84 13.49 14.37 11.31.8620844-.344748 1.667684-.8166473 2.39-1.4 1.8322435-1.4785777 4.4477565-1.4785777 6.28 0 2.86 2.29 5.86 2.49 9.37-.34 5.83-4.66 11.28-14.6 11.49-26.44.09-5.61-1-9.46-3.52-12.57zm-41.41 4.76c.14-.38.29-.74.46-1.09.2430053-.4970563.84294372-.7030053 1.33999999-.46s.70300529.8429437.46000001 1.34c-.14.29-.27.59-.39.91-.10994785.3542697-.40696379.6185729-.77160694.6866237-.36464315.0680507-.73699631-.0713328-.96732276-.3620995s-.28077956-.6851385-.1310703-1.0245242zm5.45 26.35c-.22774379.1392653-.50171617.181691-.76091475.1178305-.25919858-.0638606-.48210431-.2287054-.61908525-.4578305-3.88723373-6.5685839-5.63464714-14.1838115-5-21.79.03572656-.3572656.25933818-.6683327.58660254-.8160254s.7084622-.1095729 1 .1.44912402.5587598.41339746.9160254c-.60210733 7.1786252 1.05144889 14.3661761 4.73 20.56.2815765.4749776.12489313 1.088281-.35 1.37z"/></g></svg>