<svg height="512" viewBox="0 0 52 60" width="512" xmlns="http://www.w3.org/2000/svg"><g id="025---Apple" fill="none"><g id="Icons_copy" transform="translate(1)"><path id="Shape" d="m28 13.29c5.9317009-3.92693737 13.887516-2.6191322 18.25 3 3.14 3.83 3.82 8.44 3.74 13.22-.0775108 6.009602-1.5133359 11.923834-4.2 17.3-3 5.92-9.44 14.22-15.63 11.79-.9598022-.3949859-1.8534857-.9345684-2.65-1.6-1.4613312-1.1700013-3.5386688-1.1700013-5 0-3.53 2.86-7.1 2.5-10.62-.33-6-4.82-11.66-15-11.86-27.2-.08-4.78.6-9.39 3.74-13.22 1.06073877-1.2955693 2.34003825-2.3954962 3.78-3.25z" fill="#e8edfc"/><path id="Shape" d="m50 29.48c-.2 12.16-5.81 22.36-11.86 27.2-2 1.63-4.6 2.77-7.17 2.14 5.95-1.34 15.76-13 16-29.34.08-4.78-.6-9.39-3.74-13.22-2.2958919-2.8478772-5.6022591-4.6998726-9.23-5.17 4.7030177-.4750924 9.3251369 1.4724508 12.27 5.17 3.12 3.83 3.8 8.44 3.73 13.22z" fill="#cad9fc"/><path id="Shape" d="m33.69 6.17-4.53 3.4c-.729215.5662602-1.1570812 1.4367467-1.16 2.36v7.07h-6.000001l.000001-7.55c-.0012341-2.47080533 1.1392976-4.80354335 3.09-6.32l4.91-3.7c.4188119-.32681974.9504414-.47358821 1.4776066-.40792706s1.0065483.33835644 1.3323934.75792706l1.19 1.58c.6897966.86172669.5510537 2.11936356-.31 2.81z" fill="#a4c2f7"/><path id="Shape" d="m33 2c.0015817.7872658-.3692384 1.52890584-1 2l-5.61 4.24c-.9115187.70782528-1.4463515 1.7959334-1.45 2.95v7.81h-2.940001l.000001-7.55c-.0012341-2.47080533 1.1392976-4.80354335 3.09-6.32l4.91-3.7c.4188119-.32681974.9504414-.47358821 1.4776066-.40792706s1.0065483.33835644 1.3323934.75792706z" fill="#cad9fc"/><path id="Shape" d="m21.51 13.58c-1.7 3.11-7.35 3.24-12.63.3s-8.88-12.27-8.88-12.27 9.75-1.91 15 1 8.21 7.86 6.51 10.97z" fill="#a4c2f7"/><path id="Shape" d="m21.51 13.58c-1.06 1.95-3.68 2.73-6.78 2.31 1.5549904-.1271095 2.9575317-.984218 3.78-2.31 1.7-3.11-1.2-8-6.48-10.94-2.09813237-1.03729856-4.39984413-1.59735899-6.74-1.64 3.14-.14 7 .09 9.74 1.6 5.28 2.97 8.18 7.87 6.48 10.98z" fill="#7facfa"/></g><path id="Shape" d="m4 29.48c-.08-4.78.6-9.39 3.74-13.22 1.06371461-1.3106845 2.3583883-2.4155631 3.82-3.26-4.56-3.6-7.56-11.39-7.56-11.39 1.73476679-.3179936 3.48853744-.52176504 5.25-.61-2.76388818-.09163118-5.52964468.11286718-8.25.61 0 0 3 7.79 7.56 11.39-1.45972331.8513825-2.75105455 1.9630798-3.81 3.28-3.14 3.81-3.82 8.42-3.75 13.2.2 12.22 5.83 22.38 11.86 27.2 2.36 1.9 4.74 2.68 7.11 2.13-5.88-1.33-15.69-12.97-15.97-29.33z" fill="#fff"/><g id="Layer_3" transform="translate(-1 -1)"><path id="Shape" d="m2.4 40.57 1.94-.51c.66748905 2.5118165 1.59238713 4.9480517 2.76 7.27l-1.78.91c-1.23543129-2.4490402-2.21398152-5.0194102-2.92-7.67z" fill="#fff"/><g fill="#428dff"><path id="Shape" d="m4.61 45.13c-.55228475 0-1-.4477153-1-1s.44771525-1 1-1 1 .4477153 1 1-.44771525 1-1 1z"/><path id="Shape" d="m37.48 11c-2.2345171.0013663-4.437307.5289396-6.43 1.54.0866778-.4633008.3390609-.8791997.71-1.17l4.55-3.37c.6270964-.49034165 1.0335991-1.20981539 1.13-2 .0972718-.78837372-.1220993-1.5831445-.61-2.21l-1.23-1.62c-1.0116674-1.29960508-2.8818816-1.54063507-4.19-.54l-4.94 3.71c-1.1312843.88527816-2.0361173 2.02660164-2.64 3.33-1.5349555-2.50048364-3.7144885-4.54185288-6.31-5.91-5.52-3.08-15.3-1.21-15.71-1.13-.28934378.05815649-.53822146.24115478-.68.5-.15205635.2655457-.17416315.58609433-.06.87.12.33 2.72 7 6.83 10.89-1.07960368.7858713-2.0541878 1.7066852-2.9 2.74-3.64 4.44-4 9.75-4 13.87.05933384 3.4008056.52940787 6.781981 1.4 10.07.06780055.2601408.23748648.482027.47078139.6156071.23329492.1335802.51054796.1676027.76921861.0943929.52823186-.1461291.84041562-.6902208.7-1.22-.83032309-3.1346254-1.28022715-6.3578186-1.34-9.6-.09-5.61 1-9.46 3.52-12.57.85825328-1.0431784 1.86975491-1.9501582 3-2.69.28270438.1998153.5765091.3834432.88.55 2.3970177 1.3975471 5.106443 2.1711775 7.88 2.25.8987592.0097545 1.7943549-.1080871 2.66-.35.74223-.2040541 1.4405401-.5430396 2.06-1v2.35h-1c-.5522847 0-1 .4477153-1 1s.4477153 1 1 1h10c.5522847 0 1-.4477153 1-1s-.4477153-1-1-1h-1v-4.15c1.9469508-1.2049662 4.1903406-1.8454401 6.48-1.85 3.8915611.0746932 7.5514441 1.864376 10 4.89 2.52 3.11 3.61 6.96 3.52 12.57-.0745463 5.8608755-1.4763182 11.6286536-4.1 16.87-1.7783721 3.6646499-4.2942214 6.9226578-7.39 9.57-1.4 1.13-4.17 2.84-7 1.74-.8620844-.344748-1.667684-.8166473-2.39-1.4-1.8322435-1.4785777-4.4477565-1.4785777-6.28 0-.722316.5833527-1.5279156 1.055252-2.39 1.4-2.81 1.11-5.58-.61-7-1.74-3.0957786-2.6473422-5.61162794-5.9053501-7.39-9.57-.24852814-.4942949-.85070515-.6935281-1.345-.445s-.69352814.8507051-.445 1.345c1.9051877 3.9231018 4.60574271 7.4069199 7.93 10.23 3 2.41 6.18 3.14 9 2 1.05129-.4187514 2.0325707-.9953803 2.91-1.71 1.097863-.8828503 2.662137-.8828503 3.76 0 .8796763.7322126 1.8682382 1.3226506 2.93 1.75.8373678.330765 1.7296723.5004046 2.63.5 2.3382605-.0984357 4.5722514-.9948554 6.33-2.54 3.321706-2.8230611 6.0189863-6.3070481 7.92-10.23 2.7664212-5.5057359 4.2437158-11.5687993 4.32-17.73.07-4.12-.32-9.42-4-13.87-2.8040033-3.506038-7.0309742-5.5718233-11.52-5.63zm-17.1 4.73c-2.4.69-5.86 0-9-1.72-.4241042-.2501245-.8316183-.5273677-1.22-.83-3.27-2.57-5.74-7.54-6.74-9.78 2.71-.39 9.29-1 13.13 1.11s6.37 5.41 6.45 8v.06c.009063.4707252-.0830104.9379129-.27 1.37l-8.16-5.76c-.4520954-.2805896-1.044741-.15801772-1.3484432.27888707-.3037021.43690479-.2120905 1.03511886.2084432 1.36111293l7.89 5.52c-.2992534.1616324-.6142177.2923091-.94.39zm4.619919 3.27.000081-6.55c-.0104149-2.1581746.9838064-4.19836104 2.69-5.52l4.93-3.71c.4331519-.32242852 1.0440449-.24274682 1.38.18l1.25 1.6c.3403569.43136993.2689082 1.05654608-.16 1.4l-4.55 3.38c-.9707037.7570849-1.5387351 1.9189672-1.54 3.15v6.07z"/><path id="Shape" d="m5.13 26.9c-.10729394 1.1734399-.15069136 2.3518467-.13 3.53.06356163 5.5573522 1.38675262 11.0279093 3.87 16 .4.78.82 1.55 1.26 2.27.1369809.2291251.3598867.3939699.6190853.4578305.2591985.0638605.5331709.0214348.7609147-.1178305.4713036-.2850903.6233209-.8976306.34-1.37-.42-.69-.82-1.41-1.19-2.15-2.3492596-4.6978058-3.60074293-9.8678681-3.66-15.12-.02449387-1.1013997.01557481-2.2032883.12-3.3.03572656-.3572656-.12185965-.7064525-.41339745-.9160254s-.67273565-.2476927-1.00000001-.1-.55087599.4587598-.58660254.8160254z"/><path id="Shape" d="m6.65 23.94c.11273354.0384855.23088493.05874.35.06.41847253.0013593.79353605-.2579931.94-.65.12-.32.25-.62.39-.91.24300528-.4970563.03705626-1.0969947-.46000001-1.34s-1.09699469-.0370563-1.33999999.46c-.17.35-.32.71-.46 1.09-.09418646.2479752-.08599025.523212.02278502.7651432s.30921629.4307323.55721498.5248568z"/></g></g></g></svg>