<svg height="512" viewBox="0 0 52 60" width="512" xmlns="http://www.w3.org/2000/svg"><g id="025---Apple" transform="translate(-1 -1)"><path id="Shape" d="m31.05 12.54c.0866778-.4633008.3390609-.8791997.71-1.17l4.55-3.37c.6270964-.49034165 1.0335991-1.20981539 1.13-2 .19-1.49-.58-2.18-1.84-3.79-.9995683-1.31259535-2.8714584-1.5717114-4.19-.58l-4.94 3.71c-1.1312843.88527816-2.0361173 2.02660164-2.64 3.33-1.5349555-2.50048364-3.7144885-4.54185288-6.31-5.91-5.52-3.08-15.3-1.21-15.71-1.13-.29741754.0551089-.55390836.24187737-.69766151.50801495-.14375315.26613759-.15931862.58304092-.04233849.86198505.12.33 2.72 7 6.83 10.89-1.07960368.7858713-2.0541878 1.7066852-2.9 2.74-3.64 4.44-4 9.75-4 13.87.07563499 6.158939 1.54577237 12.2206915 4.3 17.73 3.33 6.54 10.11 14.93 16.9 12.27 1.05129-.4187514 2.0325707-.9953803 2.91-1.71 1.097863-.8828503 2.662137-.8828503 3.76 0 1.5440694 1.3540901 3.5076785 2.1345894 5.56 2.21 6 0 11.51-7.37 14.25-12.77 2.7664212-5.5057359 4.2437158-11.5687993 4.32-17.73.07-4.12-.32-9.42-4-13.87-4.2615945-5.4392484-11.7526891-7.14613285-17.95-4.09zm-6-.09c-.0104149-2.1581746.9838064-4.19836104 2.69-5.52l4.93-3.71c.423741-.29059409.9987449-.212774 1.33.18l1.25 1.6c.3403569.43136993.2689082 1.05654608-.16 1.4l-4.55 3.38c-.9707037.7570849-1.5387351 1.9189672-1.54 3.15v6.07h-4zm-21.63-9.05c2.71-.39 9.29-1 13.13 1.11s6.37 5.41 6.45 8c.018901.490922-.0733984.9797673-.27 1.43l-8.16-5.76c-.4520954-.2805896-1.044741-.15801772-1.3484432.27888707-.3037021.43690479-.2120905 1.03511886.2084432 1.36111293l7.89 5.52c-2.8 1.5-7.14.23-10-1.33-3.39-1.91-6.32-7.01-7.9-10.61zm43.48 43.93c-2.71 5.34-8.83 13.48-14.37 11.31-.8620844-.344748-1.667684-.8166473-2.39-1.4-1.8322435-1.4785777-4.4477565-1.4785777-6.28 0-2.86 2.32-5.86 2.47-9.37-.34-5.84-4.66-11.29-14.61-11.49-26.44-.1-6.26 1.32-11.84 6.51-15.26 3.55 2.46 10 4.09 13.49 1.45v2.35h-1c-.5522847 0-1 .4477153-1 1s.4477153 1 1 1h10c.5522847 0 1-.4477153 1-1s-.4477153-1-1-1h-1v-4.15c5.4608297-3.3153675 12.5378198-2.0270805 16.48 3 2.52 3.15 3.61 7 3.52 12.61-.0745463 5.8608755-1.4763182 11.6286536-4.1 16.87z"/><path id="Shape" d="m7.13 27.1c.03572656-.3572656-.12185965-.7064525-.41339745-.9160254s-.67273565-.2476927-1.00000001-.1-.55087599.4587598-.58660254.8160254c-.63531563 7.6062361 1.1121439 15.2216647 5 21.79.1572029.3478371.4987108.5758412.8802382.5876816.3815275.0118403.7365164-.1945486.9149856-.5319684.1784693-.3374198.1492845-.7470071-.0752238-1.0557132-3.67618726-6.2055141-5.32608174-13.4028293-4.72-20.59z"/><path id="Shape" d="m6.65 23.94c.24925266.0936734.52557169.0840711.7677204-.0266791s.43012834-.3135015.5222796-.5633209c.12-.32.25-.62.39-.91.24300528-.4970563.03705626-1.0969947-.46000001-1.34s-1.09699469-.0370563-1.33999999.46c-.17.35-.32.71-.46 1.09-.09418646.2479752-.08599025.523212.02278502.7651432s.30921629.4307323.55721498.5248568z"/></g></svg>