<svg id="_x33_0" enable-background="new 0 0 64 64" height="512" viewBox="0 0 64 64" width="512" xmlns="http://www.w3.org/2000/svg"><g><g><g><path d="m30 8h-12c-1.1 0-2 .9-2 2v2h-6-4v-4c0-3.31 2.69-6 6-6h12c3.31 0 6 2.69 6 6z" fill="#fcd770"/></g><g><path d="m34 10v1c0 .55-.45 1-1 1h-3-4-10v-2c0-1.1.9-2 2-2h12 2c1.1 0 2 .9 2 2z" fill="#ffc729"/></g><g><path d="m10 12v4h-1c-.81 0-1.54.32-2.08.84-.61-1.27-.92-2.67-.92-4.08v-.76z" fill="#656d78"/></g><g><path d="m30 12v.76c0 1.41-.31 2.81-.92 4.08-.54-.52-1.27-.84-2.08-.84h-1v-4z" fill="#656d78"/></g><g><path d="m34 40.2v6.8c0-1.66-1.34-3-3-3h-1v-7c0-.55-.45-1-1-1h-6l.96-5.83.87.07c5.18.43 9.17 4.76 9.17 9.96z" fill="#b4dd7f"/></g><g><path d="m5 44c-1.66 0-3 1.34-3 3v-6.8c0-5.2 3.99-9.53 9.17-9.96l.87-.07.96 5.83h-6c-.55 0-1 .45-1 1v7z" fill="#b4dd7f"/></g><g><path d="m23 36h-1-4-4-1l5-4z" fill="#b4dd7f"/></g><g><path d="m22 30 1.96.17-.96 5.83-5-4z" fill="#a0d468"/></g><g><path d="m18 32-5 4-.96-5.83 1.96-.17z" fill="#a0d468"/></g><g><path d="m30 44v-7c0-.55-.45-1-1-1h-22c-.55 0-1 .45-1 1v7c1.1 0 2 .9 2 2v4c0 1.1-.9 2-2 2v5c0 .55.45 1 1 1h17.17.01c.14-.43.39-.81.7-1.12.54-.54 1.29-.88 2.12-.88h1l.2-.39c.37-.74 1.03-1.28 1.8-1.5v-2.11c-1.1 0-2-.9-2-2v-4c0-1.1.9-2 2-2z" fill="#d3a06c"/></g><g><path d="m14 36h8v6h-8z" fill="#b27946"/></g><g><path d="m46.97 52.97c-1.17 1.82-3.21 3.03-5.53 3.03h-3.44v-1.23c0-6.5 3.96-12.35 10-14.77h6c2.52 1.89 4 4.85 4 8 0 .87-.08 1.72-.23 2.54-.52 2.84-1.91 5.39-3.87 7.36-.34.33-.69.65-1.06.94z" fill="#ff826e"/></g><g><path d="m49.91 18.6c-.1.31-.27.59-.5.81-.36.37-.86.59-1.41.59h-8-1c-1.1 0-2-.9-2-2 0-1.66.67-3.16 1.76-4.24 1.08-1.09 2.58-1.76 4.24-1.76h8c4.97 0 9 4.03 9 9v4.79c0 .79.23 1.56.67 2.22l.27.39c.69 1.04 1.06 2.27 1.06 3.52v.16c0 1.25-.37 2.48-1.06 3.52-.61.91-.94 1.99-.94 3.09 0 .86.2 1.71.59 2.49l.88 1.77c.35.69.53 1.45.53 2.23 0 .88-.23 1.72-.65 2.45-.41.74-1.02 1.37-1.77 1.82l-1.81 1.09c.15-.82.23-1.67.23-2.54 0-3.15-1.48-6.11-4-8l-1.17-1.75c-.54-.82-.83-1.77-.83-2.75s.29-1.93.83-2.75l.34-.5c.54-.82.83-1.77.83-2.75s-.29-1.93-.83-2.75l-.5-.74c-.44-.66-.67-1.43-.67-2.22v-1.65c0-1.34-.67-2.59-1.78-3.33z" fill="#fcd770"/></g><g><path d="m40 20h8c.55 0 1.05-.22 1.41-.59.23-.22.4-.5.5-.81l.31.21c1.11.74 1.78 1.99 1.78 3.33v1.65c0 .79.23 1.56.67 2.22l.5.74c.54.82.83 1.77.83 2.75s-.29 1.93-.83 2.75l-.34.5c-.54.82-.83 1.77-.83 2.75s.29 1.93.83 2.75l1.17 1.75h-6v-4h-4c-2.21 0-4-1.79-4-4v-2.38c0-.38-.21-.73-.55-.9l-.25-.12c-.74-.37-1.2-1.12-1.2-1.94 0-.43.13-.85.36-1.21l1.3-1.95c.22-.32.34-.71.34-1.11z" fill="#f0d0b4"/></g><g><path d="m46.97 52.97 5.87 5.87c-2.41 1.98-5.49 3.16-8.84 3.16h-17c-1.66 0-3-1.34-3-3 0-.35.06-.69.18-1 .14-.43.39-.81.7-1.12.54-.54 1.29-.88 2.12-.88h1l.2-.39c.37-.74 1.03-1.28 1.8-1.5.26-.07.52-.11.8-.11.77 0 1.51.31 2.05.85l1.15 1.15h4 3.44c2.32 0 4.36-1.21 5.53-3.03z" fill="#f0d0b4"/></g><g><path d="m34 47v2c0 1.66-1.34 3-3 3h-1c-1.1 0-2-.9-2-2v-4c0-1.1.9-2 2-2h1c1.66 0 3 1.34 3 3z" fill="#f0d0b4"/></g><g><path d="m8 50c0 1.1-.9 2-2 2h-1c-1.66 0-3-1.34-3-3v-2c0-1.66 1.34-3 3-3h1c1.1 0 2 .9 2 2z" fill="#f0d0b4"/></g><g><path d="m29.08 16.84c.57.54.92 1.31.92 2.16 0 .83-.34 1.58-.88 2.12s-1.29.88-2.12.88h-1v-6h1c.81 0 1.54.32 2.08.84z" fill="#f0d0b4"/></g><g><path d="m20 28c.44 0 .88-.05 1.29-.14l.71 2.14-4 2-4-2 .71-2.14c.41.09.85.14 1.29.14z" fill="#f0d0b4"/></g><g><path d="m10 12h6 10v4 6c0 2.87-2.02 5.27-4.71 5.86-.41.09-.85.14-1.29.14h-4c-.44 0-.88-.05-1.29-.14-2.69-.59-4.71-2.99-4.71-5.86v-6z" fill="#f0d0b4"/></g><g><path d="m10 16v6h-1c-.83 0-1.58-.34-2.12-.88s-.88-1.29-.88-2.12c0-.85.35-1.62.92-2.16.54-.52 1.27-.84 2.08-.84z" fill="#f0d0b4"/></g></g><g><circle cx="22" cy="16" r="1"/><circle cx="14" cy="16" r="1"/><path d="m23 21h-2c0 1.103-.897 2-2 2h-4v2h4c2.206 0 4-1.794 4-4z"/><path d="m21 53h2v2h-2z"/><path d="m17 53h2v2h-2z"/><circle cx="44" cy="24" r="1"/><path d="m63 32.08v-.16c0-1.454-.426-2.861-1.233-4.072l-.263-.395c-.33-.495-.504-1.07-.504-1.664v-4.789c0-5.514-4.486-10-10-10h-8c-3.86 0-7 3.141-7 7 0 1.654 1.346 3 3 3v1.395c0 .198-.058.39-.168.555l-1.299 1.949c-.349.522-.533 1.13-.533 1.758 0 1.209.672 2.297 1.754 2.838l.246.123v2.382c0 2.757 2.243 5 5 5h3v2.35c-6.094 2.724-10 8.697-10 15.42v.23h-2.586l-.856-.855c-.689-.69-1.593-1.075-2.558-1.125v-.02c2.206 0 4-1.794 4-4v-2-6.799c0-5.676-4.431-10.49-10.086-10.961l-2.173-.181-.183-.549c2.298-.906 4-2.992 4.363-5.509h.079c2.206 0 4-1.794 4-4 0-.876-.291-1.68-.77-2.339.466-1.164.728-2.41.757-3.661h2.013c1.103 0 2-.897 2-2v-1c0-1.654-1.346-3-3-3h-1.071c-.487-3.389-3.408-6.001-6.929-6.001h-12c-3.86 0-7 3.141-7 7v4 .764.236h.013c.029 1.251.291 2.497.757 3.661-.479.659-.77 1.463-.77 2.339 0 2.206 1.794 4 4 4h.08c.363 2.517 2.065 4.603 4.363 5.509l-.183.549-2.173.181c-5.656.472-10.087 5.286-10.087 10.962v6.799 2c0 2.206 1.794 4 4 4v4c0 1.103.897 2 2 2h16c0 2.206 1.794 4 4 4h17c7.182 0 13.194-5.075 14.655-11.827l1.438-.864c1.793-1.074 2.907-3.04 2.907-5.132 0-.924-.219-1.85-.632-2.677l-.886-1.771c-.315-.631-.482-1.338-.482-2.043 0-.905.265-1.781.767-2.533.807-1.212 1.233-2.619 1.233-4.073zm-19 2.92c-1.302 0-2.402-.839-2.816-2h1.58c1.76 0 3.343-.979 4.13-2.553l-1.789-.895c-.446.893-1.343 1.448-2.341 1.448h-1.764v-1.382c0-.764-.424-1.449-1.106-1.789l-.246-.123c-.399-.2-.648-.602-.648-1.049 0-.231.068-.456.197-.649l1.299-1.948c.33-.495.504-1.07.504-1.665v-1.395h7c.85 0 1.614-.359 2.16-.928.53.552.84 1.286.84 2.069v1.648c0 .99.291 1.949.84 2.773l.496.744c.435.652.664 1.411.664 2.194s-.229 1.542-.664 2.193l-.336.504c-.654.98-1 2.123-1 3.303s.346 2.322 1 3.303l.132.197h-3.132v-4zm-11 14c0 1.103-.897 2-2 2h-1c-.551 0-1-.448-1-1v-4c0-.552.449-1 1-1h1c1.103 0 2 .897 2 2zm-8.201-17.761c4.602.411 8.201 4.336 8.201 8.962v3.355c-.591-.344-1.268-.556-2-.556v-6c0-1.103-.897-2-2-2h-4.821zm-2-.169-.508 3.082-2.446-1.956 2.352-1.176zm-6.948 3.93 2.149-1.719 2.149 1.719zm1.149 2v4h-2v-4zm-1.777-7.507.175-.524c.199.018.399.031.602.031h4c.203 0 .403-.013.602-.031l.175.524-2.777 1.389zm3.777 7.507h2v4h-2zm8-16v-4c1.103 0 2 .897 2 2s-.897 2-2 2zm0-6v-2h1.987c-.023.791-.156 1.578-.396 2.334-.489-.213-1.025-.334-1.591-.334zm5-6c.551 0 1 .448 1 1v1h-16v-1c0-.552.449-1 1-1zm-23 12c-1.103 0-2-.897-2-2s.897-2 2-2zm0-6c-.566 0-1.102.121-1.59.334-.24-.756-.374-1.543-.397-2.334h1.987zm-2-4v-3c0-2.757 2.243-5 5-5h12c2.415 0 4.435 1.721 4.899 4h-10.899c-1.654 0-3 1.346-3 3v1zm4 11v-9h14v9c0 2.757-2.243 5-5 5h-4c-2.757 0-5-2.243-5-5zm2.802 9.02 2.352 1.176-2.446 1.956-.508-3.082zm-10.802 9.181c0-4.626 3.599-8.551 8.201-8.962l.62 3.761h-4.821c-1.103 0-2 .897-2 2v6c-.732 0-1.409.212-2 .556zm3 10.799h-1c-1.103 0-2-.897-2-2v-2c0-1.103.897-2 2-2h1c.551 0 1 .448 1 1v4c0 .552-.449 1-1 1zm17.556 6h-16.556v-4.184c1.161-.414 2-1.514 2-2.816v-4c0-1.302-.839-2.402-2-2.816v-6.184h6v6h10v-6h6v6.184c-1.161.414-2 1.514-2 2.816v4c0 1.302.839 2.402 2 2.816v.627c-.667.345-1.233.875-1.613 1.557h-.387c-1.474 0-2.75.81-3.444 2zm20.444 4h-17c-1.103 0-2-.897-2-2s.897-2 2-2h1.618l.473-.946c.325-.651.978-1.054 1.705-1.054.501 0 .993.204 1.348.559l1.442 1.441h7.85c2.234 0 4.239-.98 5.625-2.525l4.259 4.259c-2.087 1.428-4.607 2.266-7.32 2.266zm8.881-3.533-4.676-4.676c.504-1.013.795-2.15.795-3.355 0-1.815.902-3.501 2.415-4.51l.142-.095-1.112-1.662-.14.094c-2.07 1.379-3.305 3.686-3.305 6.173 0 3.068-2.496 5.564-5.564 5.564h-2.436v-.229c0-6.068 3.603-11.452 9.196-13.771h5.461c2.099 1.698 3.343 4.291 3.343 7 0 3.733-1.591 7.094-4.119 9.467zm8.119-25.387c0 1.058-.31 2.082-.897 2.963-.722 1.081-1.103 2.341-1.103 3.643 0 1.015.24 2.03.693 2.938l.886 1.771c.275.55.421 1.167.421 1.782 0 1.393-.742 2.702-1.936 3.418l-.098.059c.01-.219.034-.433.034-.654 0-3.374-1.587-6.594-4.242-8.666l-1.093-1.64c-.436-.652-.665-1.411-.665-2.194s.229-1.542.664-2.193l.336-.504c.654-.98 1-2.123 1-3.303s-.346-2.322-1-3.303l-.496-.744c-.33-.495-.504-1.07-.504-1.664v-1.648c0-1.585-.752-3.057-2.014-3.999.002-.048.014-.093.014-.142 0-1.654-1.346-3-3-3h-1v2h1c.551 0 1 .448 1 1s-.449 1-1 1h-9c-.551 0-1-.448-1-1 0-2.757 2.243-5 5-5h8c4.411 0 8 3.589 8 8v4.789c0 .99.291 1.949.84 2.773l.263.395c.587.881.897 1.905.897 2.963z"/></g></g></svg>